<svg xmlns="http://www.w3.org/2000/svg" xmlns:xlink="http://www.w3.org/1999/xlink" width="59" height="43" viewBox="0 0 59 43"><defs><style>.a{clip-path:url(#b);}.b,.c{fill:#008364;}.c{font-size:16px;font-family:KhmerMN-Bold, Khmer MN;font-weight:700;}.d{fill:rgba(255,255,255,0);}</style><clipPath id="b"><rect width="59" height="43"/></clipPath></defs><g id="a" class="a"><rect class="d" width="59" height="43"/><path class="b" d="M12.211,16.713,22.922,27.427H14.889A16.081,16.081,0,0,0,30.955,43.5a15.717,15.717,0,0,0,7.5-1.875l3.909,3.91A21.383,21.383,0,0,1,9.533,27.427H1.5Zm34.81,10.713a16.081,16.081,0,0,0-16.066-16.07,15.717,15.717,0,0,0-7.5,1.875l-3.909-3.91A21.383,21.383,0,0,1,52.377,27.427H60.41L49.7,38.14,38.988,27.427Z" transform="translate(-1.632 -5.853)"/><text class="c" transform="translate(8.2 10)"><tspan x="0" y="0">F</tspan></text><text class="c" transform="translate(42.9 43)"><tspan x="0" y="0">A</tspan></text><text class="c" transform="translate(24 26)"><tspan x="0" y="0">R</tspan></text></g></svg>