<svg xmlns="http://www.w3.org/2000/svg" xmlns:xlink="http://www.w3.org/1999/xlink" width="202" height="61" viewBox="0 0 202 61"><defs><style>.a{clip-path:url(#b);}.b,.c,.d{fill:#008364;}.c{font-size:16px;}.c,.d{font-family:KhmerMN-Bold, Khmer MN;font-weight:700;}.d{font-size:34px;}.e{fill:rgba(255,255,255,0);}</style><clipPath id="b"><rect width="202" height="61"/></clipPath></defs><g id="a" class="a"><rect class="e" width="202" height="61"/><path class="b" d="M16.5,21.213l15,15.213H20.25a22.68,22.68,0,0,0,22.5,22.82,21.77,21.77,0,0,0,10.5-2.662l5.475,5.553A29.437,29.437,0,0,1,42.75,66.853a30.207,30.207,0,0,1-30-30.427H1.5ZM65.25,36.427a22.68,22.68,0,0,0-22.5-22.82,21.77,21.77,0,0,0-10.5,2.662l-5.475-5.553A29.437,29.437,0,0,1,42.75,6a30.207,30.207,0,0,1,30,30.427H84L69,51.64,54,36.427Z" transform="translate(9.368 -5.853)"/><text class="c" transform="translate(-1 13)"><tspan x="0" y="0">Food</tspan></text><text class="d" transform="translate(97 36)"><tspan x="0" y="0">Action</tspan></text><text class="c" transform="translate(70 56)"><tspan x="0" y="0">Resource</tspan></text></g></svg>